<?xml version="1.0" encoding="UTF-8"?>
<svg xmlns="http://www.w3.org/2000/svg" xmlns:xlink="http://www.w3.org/1999/xlink" id="Capa_1" version="1.1" viewBox="0 0 1159.05 500"><defs><style> .st0 { fill: #ecebec; } .st1 { fill: #ba152b; } .st2 { fill: #419946; } .st3 { fill: #c52556; } .st4 { fill: #f1cb24; } .st5 { fill: #fff; } .st6 { fill: url(#Degradado_sin_nombre_21); } .st7 { fill: #222221; } .st8 { fill: #bb0f29; } </style><linearGradient id="Degradado_sin_nombre_21" data-name="Degradado sin nombre 21" x1="95.43" y1="2.44" x2="95.43" y2="497.56" gradientUnits="userSpaceOnUse"><stop offset="0" stop-color="#bb0640"/><stop offset=".6" stop-color="#c52556"/><stop offset=".68" stop-color="#a54252"/><stop offset=".83" stop-color="#72724b"/><stop offset=".94" stop-color="#528f47"/><stop offset="1" stop-color="#469b46"/></linearGradient></defs><path class="st6" d="M152.16,289.14c-.32-.84-.8-1.58-1.38-2.2,3.59-16.19,3.5-32.2-.36-48.33-.21-.87-.59-1.66-1.1-2.35,5.59-15.6,7.51-31.51,5.71-48.03-.1-.89-.38-1.73-.79-2.48,7.51-14.8,11.43-30.42,11.75-47.15.02-.9-.15-1.77-.47-2.58,9.35-13.84,15.26-28.97,17.78-45.67.55-3.71-2.01-7.29-5.82-7.97-12.31-2.15-24.76-1.59-36.69,1.93,11.79-22.57,16.73-49.02,12.05-76.37-.71-4.1-4.47-6.46-8.48-5.14-22.61,7.35-42.34,25.82-52.7,50.19-1.42,3.33-2.64,6.71-3.67,10.11-5.77-11.67-13.27-22.3-22.71-30.9-2.92-2.66-7.61-1.55-10.45,2.57-12.74,18.48-20.19,40.43-21.33,62.34-.76.73-1.45,1.62-1.99,2.68-10.22,19.73-14.79,42.25-13.14,63.99-.67.81-1.23,1.79-1.64,2.91-7.62,20.71-9.31,43.53-4.94,64.84-.56.89-1,1.93-1.27,3.09-4.95,21.45-3.78,44.28,3.22,64.89-.44.95-.75,2.04-.87,3.23-3.3,31.88,6.78,64.7,26.56,87.77,6.29,7.39,13.28,13.54,20.69,18.37,14.12,9.21,29.68,13.56,45.14,13.24,9.39,24.39,20.85,48.18,34.38,71.13,1.15,1.96,2.89,3.32,4.74,3.93,1.85.61,3.83.47,5.48-.54,3.3-2.04,4.1-6.72,1.87-10.51-13.13-22.28-24.26-45.38-33.38-69.05,17.87-15.36,30.01-35.98,36.34-58.15,6.74-24.02,5.97-47.29-2.5-69.82ZM26.74,181.98c20.28,12.48,35.16,33.45,43.38,58.02.07.21.18.38.26.58.98,3.02,1.88,6.09,2.65,9.23-1.34,6.48-2.02,13.14-1.99,19.83-11.88-16.24-26.99-29.83-44.63-38.13-4.03-16.07-3.91-33.3.34-49.53ZM85.55,277.38c-.86-8.63-.37-17.38,1.53-25.73.02-.1.03-.21.05-.31.78-3.37,1.79-6.68,3.01-9.9.18-.32.35-.66.49-1.02,9.2-23.45,28.52-39.04,50.97-43.58.43,13.17-1.87,26-6.88,38.48-20.91,6.16-38.79,20.6-49.17,42.05ZM139.87,182.99c-21.53,3.5-41.08,15.63-54.07,35.63.22-8.68,1.81-17.32,4.75-25.37.04-.1.06-.21.09-.31,1.2-3.25,2.61-6.41,4.22-9.45.22-.3.44-.61.62-.95,12.07-22.16,33.22-35.29,56.08-37-1.25,13.19-5.15,25.69-11.7,37.47ZM75.18,179.52c.04.22.13.42.19.63.59,3.13,1.1,6.28,1.47,9.49-2.14,6.27-3.65,12.8-4.46,19.44-9.76-17.61-23.04-33.02-39.49-43.49-1.98-16.49.31-33.64,6.61-49.29,18.56,14.99,30.66,37.76,35.69,63.22ZM22.36,248.5c21.69,9.8,39.09,28.71,50.3,52.1.15.3.31.59.48.87,1.3,2.78,2.53,5.6,3.63,8.5-.52,6.61-.35,13.31.52,19.97-13.84-14.66-30.53-26.26-49.07-32.28-6.01-15.45-8.05-32.55-5.88-49.15ZM92.68,335.83c-1.94-8.48-2.56-17.25-1.72-25.78.01-.11,0-.21.01-.32.35-3.44.93-6.85,1.74-10.2.14-.35.27-.71.37-1.09,6.19-24.44,23.39-42.3,45.1-49.61,2.08,12.99,1.41,26-2.01,39.02-19.97,8.74-35.9,25.32-43.5,47.98ZM168.11,95.35c-2.95,13.1-8.46,25.14-16.5,36.12-21.81.8-42.77,10.46-58.18,28.73,1.32-8.61,3.99-17.01,7.92-24.68.04-.08.07-.17.11-.25,2.86-5.53,6.36-10.71,10.44-15.38,3.9-3.2,7.52-6.63,10.89-10.24,13.4-10.3,29.29-15.04,45.3-14.3ZM139.65,20.78c2.8,28.87-6.89,56.79-25.69,77.45-2.38,1.86-4.7,3.85-6.93,6-1.39,1.34-2.73,2.74-4.03,4.17-.44.35-.88.71-1.33,1.05-.17-.52-.32-1.05-.48-1.58-.65-5.12-1.55-10.18-2.7-15.15-.71-11.25,1.3-23.05,6.08-34.21,7.21-16.89,19.92-30.38,35.1-37.73ZM60.68,52.13c11.51,12.06,19.34,27.8,23.67,44.84.47,5.35,1.43,10.58,2.9,15.6.7,5.79,1.05,11.67.96,17.65-2.92,5.98-5.25,12.29-6.89,18.81-7.45-18.76-18.66-35.81-33.65-48.32.15-16.76,4.67-33.66,13-48.58ZM48.79,378.79c-14.43-17.15-22.59-40.29-22.44-63.75,22.75,7.01,42.38,23.63,56.49,45.54.18.28.38.54.58.8,1.64,2.61,3.22,5.27,4.69,8.03.61,12.46,3.72,24.96,9.14,36.55-17.71-1.88-35.02-11.08-48.47-27.16ZM141.17,355.16c-5.32,18.35-15.34,35.08-29.79,47.54-5.62-10.86-8.83-22.98-9.18-34.99,0-.09-.02-.17-.02-.25-.09-3.6.05-7.18.45-10.74.07-.28.16-.55.19-.84,3.04-25.15,17.88-45.06,38.49-55.05,5.18,17.65,5.14,35.93-.14,54.33Z"/><g><path class="st8" d="M229.1,178.36c0-36.78,24.3-70.72,62.4-70.72,17.3,0,41.16,7.01,41.16,31.97,0,23.65-21.24,38.54-72.69,40.07-.44,2.63-.44,3.94-.44,5.04,0,10.95,5.25,18.39,20.36,18.39,10.07,0,17.74-3.07,28.03-15.98l18.83,14.89c-14.23,18.83-29.34,25.84-49.05,25.84-32.62,0-48.61-19.05-48.61-49.48ZM264.13,155.15l-.88,5.04c32.84-1.97,39.63-8.32,39.63-17.52,0-9.85-7.66-11.6-13.14-11.6-12.92,0-22.99,9.2-25.62,24.08Z"/><path class="st8" d="M327.19,225.22l22.99-114.95h30.65l-5.25,26.71h1.31c8.76-18.39,20.14-29.34,38.1-29.34s27.59,10.95,27.59,29.78c0,5.47-.88,10.29-1.97,16.2l-9.41,47.08h11.6l-4.82,24.52h-19.93c-11.6,0-18.39-6.35-18.39-16.64,0-2.63.44-5.04.66-6.13l8.98-45.54c.88-4.16,1.53-7.88,1.53-12.26,0-6.57-3.28-11.39-11.6-11.39-7.44,0-13.58,4.6-18.61,10.51-5.25,6.13-9.2,13.58-10.95,22.33l-11.82,59.12h-30.65Z"/><path class="st8" d="M489.44,178.14c0-40.95,26.27-70.5,61.09-70.5,21.9,0,38.32,11.82,41.16,29.78l-25.84,9.85c-2.63-8.98-5.91-14.89-17.08-14.89-12.92,0-20.58,7.88-23.87,24.09l-3.94,19.49c-.66,3.06-1.09,6.13-1.09,9.2,0,10.73,5.25,17.95,17.3,17.95s16.42-7.23,22.77-18.17l23.43,10.95c-10.07,21.24-26.93,31.97-48.83,31.97-24.96,0-45.1-14.01-45.1-49.7Z"/><path class="st8" d="M585.12,179.9c0-41.6,25.18-72.26,59.34-72.26,28.03,0,45.76,17.74,45.76,47.95,0,41.6-25.18,72.26-59.34,72.26-28.03,0-45.76-17.74-45.76-47.95ZM654.97,177.93l4.16-20.58c.22-1.31.66-3.94.66-6.79,0-10.95-5.69-18.17-16.42-18.17-11.6,0-19.71,8.76-22.99,25.18l-4.16,20.58c-.22,1.31-.66,3.94-.66,6.79,0,10.95,5.69,18.17,16.42,18.17,11.6,0,19.71-8.76,22.99-25.18Z"/><path class="st8" d="M689.12,225.22l22.99-114.95h30.65l-5.25,26.71h1.31c8.54-17.95,19.49-29.34,37-29.34s26.49,10.95,26.71,29.34h1.1c8.54-17.08,19.71-29.34,38.1-29.34,16.86,0,26.06,11.17,26.06,29.12,0,6.79-1.31,13.14-2.63,19.92l-8.76,44.01h11.6l-4.82,24.52h-19.93c-11.6,0-18.39-6.35-18.39-16.64,0-2.63.44-5.04.66-6.13l8.98-45.54c.88-4.16,1.75-8.32,1.75-12.04,0-7.01-2.85-11.6-9.63-11.6s-13.14,4.38-17.95,10.29c-4.82,5.91-8.98,14.67-10.51,22.55l-11.82,59.12h-30.65l13.58-68.31c.88-4.16,1.53-8.32,1.53-11.82,0-7.23-2.85-11.82-10.29-11.82s-13.36,4.38-18.39,10.51-8.76,13.58-10.51,22.33l-11.82,59.12h-30.65Z"/><path class="st8" d="M922.75,110.27l-13.58,68.31c-.88,4.16-1.53,8.32-1.53,11.6,0,7.45,3.28,12.04,10.73,12.04s13.36-4.38,18.39-10.51,8.76-13.58,10.51-22.33l11.82-59.12h30.65l-18.17,90.43h12.92l-4.82,24.52h-20.36c-10.95,0-19.27-6.13-19.27-16.86,0-2.41.44-5.47.66-6.57l.66-3.28h-1.31c-8.54,17.95-19.49,29.34-37,29.34s-27.15-10.95-27.15-29.78c0-5.69.88-10.73,1.97-16.64l14.23-71.16h30.65ZM946.83,98.44l-18.39-10.07,26.06-41.6,24.52,13.14-32.19,38.54Z"/><path class="st8" d="M986.68,225.22l22.99-114.95h30.65l-5.25,26.71h1.31c8.76-18.39,20.14-29.34,38.1-29.34s27.59,10.95,27.59,29.78c0,5.47-.88,10.29-1.97,16.2l-9.41,47.08h11.6l-4.82,24.52h-19.93c-11.6,0-18.39-6.35-18.39-16.64,0-2.63.44-5.04.66-6.13l8.98-45.54c.88-4.16,1.53-7.88,1.53-12.26,0-6.57-3.28-11.39-11.6-11.39-7.44,0-13.58,4.6-18.61,10.51-5.25,6.13-9.2,13.58-10.95,22.33l-11.82,59.12h-30.65Z"/><path class="st8" d="M1111.48,214.49c0-2.41.88-7.01,1.53-10.07,1.75-9.63,8.98-16.2,21.24-16.2s16.64,6.79,16.64,13.14c0,2.41-.88,7.01-1.53,10.07-1.75,9.63-8.98,16.2-21.24,16.2s-16.64-6.79-16.64-13.14Z"/></g><g><g><g><path class="st8" d="M421.25,332.1c-.46,4.21-1.86,7.55-4.22,10.02-2.36,2.47-5.32,3.7-8.87,3.7-4.35,0-7.8-1.76-10.35-5.29-2.55-3.53-3.83-8.29-3.83-14.3s1.28-10.8,3.83-14.33c2.55-3.53,6-5.3,10.35-5.3,3.57,0,6.53,1.19,8.89,3.58,2.36,2.38,3.76,5.62,4.2,9.69h-6.42c-.22-2.05-.93-3.67-2.13-4.86-1.2-1.19-2.71-1.79-4.54-1.79-2.37,0-4.25,1.17-5.66,3.51-1.4,2.34-2.11,5.51-2.11,9.5s.7,7.13,2.09,9.46c1.4,2.33,3.29,3.5,5.67,3.5,1.81,0,3.32-.64,4.52-1.92,1.2-1.28,1.92-3.01,2.16-5.19h6.42Z"/><path class="st8" d="M430.99,345.6c-2.11,0-3.79-.73-5.04-2.18-1.24-1.45-1.86-3.42-1.86-5.89s.57-4.42,1.7-5.9c1.13-1.48,2.78-2.43,4.95-2.85l4.67-.89c.95-.19,1.7-.48,2.26-.89.15-.1.28-.29.38-.56.1-.27.15-.54.15-.81v-.1c0-1.07-.33-1.86-.98-2.37-.65-.52-1.64-.77-2.96-.77-1.07,0-1.91.32-2.54.96-.63.64-1.01,1.59-1.14,2.84h-5.71c.39-3.55,1.34-6.05,2.84-7.5,1.5-1.45,3.91-2.17,7.21-2.17,2.89,0,5.13.71,6.72,2.13,1.59,1.42,2.38,3.43,2.38,6.02v14.68c0,1.59.08,2.69.25,3.29.17.6.51,1.02,1.02,1.26v.96h-6.44v-.03c-.27-.95-.45-2.05-.53-3.32v-.03c-1.84,2.74-4.29,4.11-7.33,4.11ZM438.19,334.61v-3.02c-.44.34-1.01.59-1.73.76l-2.13.51c-1.62.39-2.74.88-3.35,1.47-.61.59-.91,1.47-.91,2.64s.23,1.97.7,2.55c.47.58,1.14.88,2.02.88,2.08,0,3.66-.95,4.74-2.84l.1-.15c.15-.24.28-.63.38-1.17.12-.54.18-1.08.18-1.62Z"/><path class="st8" d="M462.2,325.53c-.05-1.08-.43-1.94-1.13-2.58s-1.63-.95-2.8-.95-2.11.22-2.73.67c-.62.45-.92,1.1-.92,1.97,0,.66.31,1.19.94,1.6.63.39,1.81.81,3.55,1.27,3.65.93,6.16,2.01,7.53,3.25,1.37,1.22,2.05,3.01,2.05,5.38,0,2.96-.91,5.28-2.72,6.95-1.81,1.67-4.31,2.51-7.51,2.51s-5.95-.83-7.79-2.49c-1.84-1.66-2.79-4.02-2.84-7.08h6.11c.02,1.3.42,2.31,1.21,3.02.79.71,1.89,1.07,3.32,1.07s2.45-.26,3.17-.77c.72-.52,1.08-1.27,1.08-2.27,0-.64-.37-1.18-1.11-1.6-.73-.42-2.12-.9-4.17-1.42-3.35-.86-5.66-1.89-6.91-3.1-1.25-1.18-1.88-2.94-1.88-5.28,0-2.88.83-5.12,2.5-6.74,1.67-1.61,3.97-2.42,6.91-2.42s5.43.77,7.11,2.3c1.67,1.53,2.58,3.77,2.72,6.71h-5.68Z"/><path class="st8" d="M483.38,345.06c-1,.08-2.22.13-3.68.13-2.08,0-3.59-.49-4.53-1.47-.94-.98-1.41-2.55-1.41-4.72v-16.54h-3.12v-5.2h3.12v-7.43h5.96v7.43h3.65v5.2h-3.65v15.22c0,.8.16,1.32.47,1.56.31.25.97.37,1.97.37h1.22v5.45Z"/><path class="st8" d="M487.39,317.26h5.96v27.6h-5.96v-27.6ZM487.41,307.21h5.91v6.75h-5.91v-6.75Z"/><path class="st8" d="M499.23,307.57h5.96v37.29h-5.96v-37.29Z"/><path class="st8" d="M511.08,307.57h5.96v37.29h-5.96v-37.29Z"/><path class="st8" d="M528.11,345.6c-2.11,0-3.79-.73-5.04-2.18-1.24-1.45-1.86-3.42-1.86-5.89s.57-4.42,1.7-5.9c1.13-1.48,2.78-2.43,4.95-2.85l4.67-.89c.95-.19,1.7-.48,2.26-.89.15-.1.28-.29.38-.56.1-.27.15-.54.15-.81v-.1c0-1.07-.33-1.86-.98-2.37-.65-.52-1.64-.77-2.96-.77-1.07,0-1.91.32-2.54.96-.63.64-1.01,1.59-1.14,2.84h-5.71c.39-3.55,1.34-6.05,2.84-7.5,1.5-1.45,3.91-2.17,7.21-2.17,2.89,0,5.13.71,6.72,2.13,1.59,1.42,2.38,3.43,2.38,6.02v14.68c0,1.59.08,2.69.25,3.29.17.6.51,1.02,1.02,1.26v.96h-6.44v-.03c-.27-.95-.45-2.05-.53-3.32v-.03c-1.84,2.74-4.29,4.11-7.33,4.11ZM535.31,334.61v-3.02c-.44.34-1.01.59-1.73.76l-2.13.51c-1.62.39-2.74.88-3.35,1.47-.61.59-.91,1.47-.91,2.64s.23,1.97.7,2.55c.47.58,1.14.88,2.02.88,2.08,0,3.66-.95,4.74-2.84l.1-.15c.15-.24.28-.63.38-1.17.12-.54.18-1.08.18-1.62Z"/><path class="st8" d="M406.02,399.5c-.85,2.93-1.77,4.88-2.76,5.87-.99.99-2.51,1.48-4.56,1.48-1.12,0-2.05-.03-2.79-.1v-5.67c.27.05.77.08,1.5.08.86,0,1.53-.23,2-.68.47-.46.87-1.26,1.19-2.41l.2-1.62v-.02l-8.3-28.29h6.56l4.95,20.32h0l4.77-20.32h6.28l-9.03,31.36Z"/><path class="st8" d="M430.86,395.74v-37.29h6.42v30.67h15.2v6.62h-21.62Z"/><path class="st8" d="M466.25,396.48c-3.86,0-6.75-1.26-8.68-3.77-1.93-2.51-2.9-6.29-2.92-11.33,0-4.28.97-7.68,2.91-10.2,1.94-2.52,4.55-3.78,7.85-3.78,3.52,0,6.19,1.24,8.02,3.72,1.83,2.48,2.74,6.09,2.74,10.85l-.04,2.11h-15.43c.15,2.01.54,3.54,1.17,4.59.81,1.35,2.15,2.03,4.01,2.03.96,0,1.78-.27,2.45-.8.67-.53,1.09-1.26,1.28-2.17h6.37c-.56,2.69-1.71,4.82-3.45,6.39-1.74,1.57-3.83,2.36-6.27,2.36ZM469.95,379.33c-.12-1.78-.5-3.16-1.14-4.16-.79-1.25-1.96-1.88-3.5-1.88s-2.77.72-3.55,2.16c-.49.93-.83,2.22-1.01,3.88h9.2Z"/><path class="st8" d="M481.94,392.56c-2.09-2.61-3.13-6.14-3.13-10.59s1.04-8.01,3.13-10.63c2.09-2.62,4.91-3.93,8.46-3.93s6.39,1.31,8.47,3.93c2.08,2.62,3.12,6.16,3.12,10.63s-1.04,7.98-3.12,10.59c-2.08,2.61-4.9,3.92-8.47,3.92s-6.37-1.31-8.46-3.92ZM494.45,388.25c.92-1.43,1.38-3.52,1.38-6.28s-.46-4.88-1.38-6.32c-.92-1.44-2.27-2.16-4.05-2.16s-3.12.72-4.05,2.16c-.92,1.44-1.38,3.54-1.38,6.32s.46,4.85,1.38,6.28,2.27,2.14,4.05,2.14,3.12-.71,4.05-2.14ZM487.13,364.38l4.01-7.61h6.52l-6.24,7.61h-4.29Z"/><path class="st8" d="M506.16,368.14h5.66v4.24l.76-1.34c1.54-2.42,3.6-3.63,6.19-3.63,2.4,0,4.32.82,5.75,2.45,1.43,1.63,2.14,3.82,2.14,6.56v19.33h-5.96v-17.18c0-1.66-.33-2.92-.98-3.79-.65-.87-1.59-1.31-2.8-1.31-1.56,0-2.74.62-3.56,1.86-.82,1.24-1.23,3.04-1.23,5.39v15.02h-5.96v-27.6Z"/></g><g><path class="st1" d="M369.98,367.55l-17.15-81.14c-2.06-9.68-11.58-15.86-21.27-13.79l-87.37,18.84c-9.68,2.07-15.86,11.58-13.79,21.27l17.16,81.13c2.06,9.68,11.58,15.86,21.27,13.79l37.77-8.14,24.12,21.54v-26.74l25.49-5.49c9.68-2.06,15.86-11.58,13.79-21.26"/><polygon class="st5" points="247.41 381.02 247.41 395.85 284.93 395.85 284.93 380.97 278.79 380.97 278.79 345.67 247.41 345.67 247.41 360.37 253.33 360.37 253.33 381.02 247.41 381.02"/><path class="st5" d="M280.04,330.75c0,6.83-7.2,12.43-15.99,12.43s-16.07-5.6-16.07-12.43,7.2-12.42,16.07-12.42,15.99,5.62,15.99,12.42"/><path class="st5" d="M268.12,374.99c8.34-7.4,16.87-14.66,24.93-22.39,2.05-1.97,4.18-3.86,6.22-5.84,1.42-1.37,2.93-3.63,4.77-4.4,1.81-.75,5.02-.25,6.95-.08,1.46.12,5.06.07,5.5,1.87.46,1.9-1.81,4.71-2.85,6.06-1.78,2.29-3.57,4.58-5.32,6.91-3.25,4.27-6.2,8.73-9.22,13.17-1.25,1.84-2.08,4.04-1.35,6.28.36,1.11,1.5,2.49,2.77,2.49,2.74,0,6.25-4.66,7.88-6.59,1.77-2.11,3.55-4.22,5.3-6.35,7.76-9.48,15.52-18.95,23.28-28.42,2.19-2.67,4.55-6.62,7.95-2.83,3.2,3.58.84,7.33-1.21,10.66-3.29,5.36-19.22,28.1-8.53,31.45,5.28,1.64,14.08-13.28,16.08-11.28,3.23,3.23-1.79,9.06-3.47,11.65-4.6,7.09-16.17,24.27-26.59,16.51-2.15-1.6-2.96-4.21-3.35-6.75-.23-1.45-.42-2.99-.42-4.47,0-1.03.26-2.44-.19-3.57-2.78,3.83-5.38,7.88-8.37,11.53-2.24,2.73-5.15,5.43-8.86,5.43-2.58,0-4.98-1.94-6.73-3.59-2.7-2.56-5.73-6.04-6.37-9.86-.74-4.45-.56-8.8-.56-13.31-1.78.62-4.04,2.36-5.63,3.51-3.08,2.22-6.16,4.45-9.25,6.67-.91.66-2.31,2.1-3.01.41-.44-1.04-1.59-4.1-.34-4.87"/></g></g><g><rect class="st3" x="593.88" y="286.62" width="119.31" height="119.31"/><g><path class="st0" d="M624.16,365.13h15.86c.66,7.82,5.84,12.78,13.99,12.78,7.38,0,12.34-3.08,12.34-8.92,0-15.09-39.99-3.53-39.99-33.82,0-12.78,11.02-21.81,26.66-21.81,16.63,0,27.87,9.58,28.31,24.24h-15.75c-.55-6.06-5.18-10.02-12.56-10.02-6.5,0-10.58,3.08-10.58,7.6,0,16.08,40.54,3.08,40.54,33.6,0,14.43-11.68,23.46-28.97,23.46s-29.19-10.69-29.85-27.1Z"/><rect class="st7" x="622.05" y="300.33" width="62.98" height="6.56"/></g><g><path class="st3" d="M732.19,352.43h7.61c.32,3.75,2.8,6.13,6.71,6.13,3.54,0,5.92-1.48,5.92-4.28,0-7.24-19.19-1.69-19.19-16.23,0-6.13,5.29-10.46,12.79-10.46,7.98,0,13.37,4.6,13.58,11.63h-7.56c-.27-2.91-2.49-4.81-6.03-4.81-3.12,0-5.08,1.48-5.08,3.65,0,7.71,19.45,1.48,19.45,16.12,0,6.92-5.61,11.26-13.9,11.26s-14-5.13-14.32-13Z"/><path class="st3" d="M788.53,365.01h-7.4v-3.7c-1.48,2.54-4.44,4.12-8.09,4.12-5.97,0-9.88-4.39-9.88-10.46v-16.6h7.34v14.96c0,3.22,2.12,5.55,5.13,5.55,3.22,0,5.5-2.54,5.5-5.92v-14.59h7.4v26.64Z"/><path class="st3" d="M792.59,338.38h7.4v3.75c1.43-2.43,3.97-4.18,7.56-4.18,4.18,0,6.87,1.69,8.14,4.86,1.27-2.59,4.6-4.86,8.88-4.86,5.81,0,9.56,4.28,9.56,9.62v17.44h-7.34v-15.12c0-3.43-1.85-5.7-4.71-5.7-3.06,0-5.02,2.27-5.02,5.7v15.12h-7.4v-15.12c0-3.43-1.8-5.7-4.65-5.7-3.07,0-5.02,2.27-5.02,5.7v15.12h-7.4v-26.64Z"/><path class="st3" d="M860.71,347.89v17.12h-7.3v-3.7c-.9,2.48-3.86,4.12-7.51,4.12-5.18,0-8.72-3.44-8.72-7.98,0-5.23,3.91-8.4,9.72-8.4h4.49c1.32,0,2.01-.85,2.01-1.96,0-2.22-1.74-3.75-4.76-3.75-3.23,0-4.87,2.01-4.97,4.23h-6.56c.32-5.34,4.65-9.62,11.94-9.62,6.72,0,11.63,3.91,11.63,9.94ZM853.42,354.07v-.37h-5.39c-2.22,0-3.81,1.37-3.81,3.44,0,1.74,1.48,2.96,3.54,2.96,3.59,0,5.66-2.64,5.66-6.03Z"/><path class="st3" d="M877.09,344.51c-3.65,0-5.29,3.01-5.29,7.55v12.95h-7.4v-26.64h7.4v4.44c1.43-3.33,3.44-4.44,6.66-4.44h3.01v6.13h-4.39Z"/></g><g><path class="st7" d="M733.01,300.47h4.93l5.95,14.25,5.98-14.25h4.9v20.41h-4.08v-12.45l-5.16,12.45h-3.23l-5.19-12.45v12.45h-4.08v-20.41Z"/><path class="st7" d="M756.66,313.53c0-4.37,3.24-7.58,7.76-7.58s7.76,3.21,7.76,7.58-3.23,7.58-7.76,7.58-7.76-3.21-7.76-7.58ZM768.09,313.53c0-2.45-1.49-4.11-3.67-4.11s-3.67,1.66-3.67,4.11,1.49,4.08,3.67,4.08,3.67-1.66,3.67-4.08Z"/><path class="st7" d="M771.69,306.18h4.14l3.09,9.51,3.06-9.51h4.17l-5.36,14.69h-3.73l-5.36-14.69Z"/><path class="st7" d="M791.28,299.79v4.29h-4.32v-4.29h4.32ZM787.08,306.18h4.08v14.69h-4.08v-14.69Z"/><path class="st7" d="M793.41,306.18h4.08v2.07c.79-1.34,2.19-2.31,4.17-2.31,2.31,0,3.79.93,4.49,2.68.7-1.43,2.54-2.68,4.9-2.68,3.21,0,5.28,2.36,5.28,5.31v9.62h-4.05v-8.34c0-1.89-1.02-3.15-2.59-3.15-1.69,0-2.77,1.25-2.77,3.15v8.34h-4.08v-8.34c0-1.89-.99-3.15-2.56-3.15-1.69,0-2.77,1.25-2.77,3.15v8.34h-4.08v-14.69Z"/><path class="st7" d="M822.77,299.79v4.29h-4.32v-4.29h4.32ZM818.58,306.18h4.08v14.69h-4.08v-14.69Z"/><path class="st7" d="M838.7,315.89c-.58,3.18-3.38,5.22-7,5.22-4.99,0-7.55-3.91-7.55-7.61s2.28-7.55,7.26-7.55,7.26,3.82,7.26,7.17c0,.55-.03.99-.06,1.32h-10.56c.29,2.07,1.6,3.35,3.65,3.35,1.63,0,2.71-.64,3.03-1.89h3.97ZM828.11,311.87h6.5c-.12-1.63-1.25-2.94-3.21-2.94-1.84,0-2.95.9-3.3,2.94Z"/><path class="st7" d="M840.18,306.18h4.08v2.04c.82-1.43,2.45-2.28,4.46-2.28,3.33,0,5.48,2.39,5.48,5.77v9.15h-4.08v-8.25c0-1.78-1.14-3.06-2.83-3.06-1.78,0-3.03,1.37-3.03,3.26v8.05h-4.08v-14.69Z"/><path class="st7" d="M861.94,301.84v4.34h3.94v3.38h-3.94v5.8c0,1.43.76,2.1,2.07,2.1h1.87v3.41h-2.42c-3.38,0-5.57-1.92-5.57-5.34v-5.98h-2.83v-3.38h2.83v-4.34h4.05Z"/><path class="st7" d="M866.31,313.53c0-4.37,3.24-7.58,7.76-7.58s7.76,3.21,7.76,7.58-3.23,7.58-7.76,7.58-7.76-3.21-7.76-7.58ZM877.74,313.53c0-2.45-1.49-4.11-3.67-4.11s-3.67,1.66-3.67,4.11,1.49,4.08,3.67,4.08,3.67-1.66,3.67-4.08Z"/></g><g><path class="st7" d="M732.92,383.01c0-5.7,3.96-8.64,8.48-8.64,4.25,0,7.37,2.41,7.82,6.06h-3.79c-.24-1.76-1.91-2.95-4.03-2.95-2.73,0-4.83,1.91-4.83,5.53s2.1,5.5,4.83,5.5c2.17,0,3.84-1.18,4.13-2.92h3.63c-.32,3.63-3.43,6.06-7.75,6.06-4.59,0-8.48-2.95-8.48-8.64Z"/><path class="st7" d="M760.79,383.64v7.82h-3.33v-1.69c-.41,1.13-1.76,1.88-3.43,1.88-2.37,0-3.99-1.57-3.99-3.65,0-2.39,1.79-3.84,4.45-3.84h2.05c.6,0,.92-.39.92-.9,0-1.01-.8-1.71-2.17-1.71-1.47,0-2.22.92-2.27,1.93h-2.99c.14-2.44,2.12-4.39,5.46-4.39,3.07,0,5.31,1.79,5.31,4.54ZM757.45,386.47v-.17h-2.46c-1.02,0-1.74.62-1.74,1.57,0,.8.67,1.35,1.62,1.35,1.64,0,2.58-1.21,2.58-2.75Z"/><path class="st7" d="M761.78,387.36h2.9c.12,1.09.97,1.76,2.22,1.76,1.04,0,1.76-.51,1.76-1.18,0-2.49-6.55-.05-6.55-5.17,0-2.15,1.86-3.67,4.35-3.67,2.92,0,4.9,1.57,5.02,3.96h-2.92c-.14-1.04-1.09-1.59-2.01-1.59s-1.59.41-1.59,1.18c0,2.49,6.66-.34,6.66,5.17,0,2.32-1.88,3.84-4.73,3.84s-5-1.66-5.12-4.3Z"/><path class="st7" d="M777.66,375.7v3.6h3.26v2.8h-3.26v4.8c0,1.18.63,1.74,1.71,1.74h1.55v2.82h-2c-2.8,0-4.61-1.59-4.61-4.42v-4.95h-2.34v-2.8h2.34v-3.6h3.35Z"/><path class="st7" d="M785.6,374v3.55h-3.58v-3.55h3.58ZM782.12,379.29h3.38v12.17h-3.38v-12.17Z"/><path class="st7" d="M787.54,374h3.35v17.46h-3.35v-17.46Z"/><path class="st7" d="M793.14,374h3.35v17.46h-3.35v-17.46Z"/><path class="st7" d="M808.83,383.64v7.82h-3.33v-1.69c-.41,1.13-1.76,1.88-3.43,1.88-2.37,0-3.98-1.57-3.98-3.65,0-2.39,1.78-3.84,4.44-3.84h2.05c.6,0,.92-.39.92-.9,0-1.01-.8-1.71-2.17-1.71-1.47,0-2.22.92-2.27,1.93h-2.99c.14-2.44,2.12-4.39,5.46-4.39,3.07,0,5.31,1.79,5.31,4.54ZM805.49,386.47v-.17h-2.46c-1.02,0-1.74.62-1.74,1.57,0,.8.68,1.35,1.62,1.35,1.64,0,2.58-1.21,2.58-2.75Z"/><path class="st7" d="M821.46,391.41l-1.71,4.98h-3.21l1.78-5.02-4.42-12.08h3.43l2.56,7.85,2.54-7.85h3.45l-4.42,12.12Z"/><path class="st7" d="M831.46,374.56h3.65v13.77h7.68v3.14h-11.32v-16.91Z"/><path class="st7" d="M855.08,387.33c-.48,2.63-2.8,4.32-5.8,4.32-4.13,0-6.25-3.23-6.25-6.3s1.88-6.26,6.01-6.26,6.01,3.16,6.01,5.94c0,.46-.02.82-.05,1.09h-8.74c.24,1.71,1.33,2.77,3.02,2.77,1.36,0,2.25-.53,2.52-1.57h3.28ZM846.32,384h5.38c-.1-1.35-1.04-2.44-2.66-2.44-1.52,0-2.44.75-2.73,2.44Z"/><path class="st7" d="M855.67,385.38c0-3.62,2.68-6.28,6.42-6.28s6.42,2.66,6.42,6.28-2.68,6.28-6.42,6.28-6.42-2.66-6.42-6.28ZM865.14,385.38c0-2.03-1.23-3.4-3.04-3.4s-3.05,1.38-3.05,3.4,1.23,3.38,3.05,3.38,3.04-1.38,3.04-3.38ZM862.39,374.37h3.58l-2.42,3.57h-2.85l1.69-3.57Z"/><path class="st7" d="M869.74,379.29h3.38v1.69c.68-1.18,2.03-1.88,3.7-1.88,2.75,0,4.54,1.98,4.54,4.78v7.58h-3.38v-6.84c0-1.47-.94-2.53-2.34-2.53-1.47,0-2.51,1.13-2.51,2.7v6.66h-3.38v-12.17Z"/></g></g><g><g><path class="st2" d="M1141.13,329.66l-9.07-8.11v7.36c-.6.35-1.87.4-2.55-.07l.09-13,9.08,8.27-.14-7.85h2.61s-.03,13.4-.03,13.4Z"/><path class="st2" d="M1127.63,322.7c0,3.64-2.95,6.6-6.6,6.6s-6.6-2.95-6.6-6.6,2.95-6.6,6.6-6.6,6.6,2.95,6.6,6.6ZM1124.99,322.3c-.21-2.43-2.15-3.94-4.31-3.76-2.07.17-3.61,1.9-3.63,4.13-.02,2.4,1.84,4.21,4.1,4.17,2.27-.04,4.05-1.99,3.83-4.54Z"/><polygon class="st2" points="1112.3 323.88 1106.78 323.9 1106.77 326.7 1113.26 326.71 1113.31 329.14 1104.25 329.14 1104.25 316.25 1113.01 316.23 1113.09 318.69 1106.76 318.68 1106.76 321.41 1112.25 321.45 1112.3 323.88"/><path class="st2" d="M1138.74,305.54l-4.35-.02-1.02,2.47c-.73.04-1.48.02-2.47-.08l5.84-13.35,5.83,13.36-2.88.12-.96-2.5ZM1137.81,303.33l-1.2-3.17-1.28,3.18h2.47Z"/><path class="st2" d="M1081.65,305.54l-4.35-.02-1.02,2.47c-.73.04-1.48.02-2.47-.08l5.84-13.35,5.83,13.36-2.88.12-.96-2.5ZM1080.72,303.33l-1.2-3.17-1.28,3.18h2.47Z"/><path class="st2" d="M1091.63,307.99c-2.04.47-3.97.04-5.78-1.08.08-.61.54-1.4.99-1.99,1.51.99,4.49,1.65,5.02-.03.13-.4-.18-1.32-.59-1.52l-2.53-1.21c-1.5-.72-2.47-1.9-2.4-3.46.07-1.57,1.04-2.99,2.7-3.43,1.94-.52,3.81-.16,5.59,1.01l-.93,1.88c-1.34-.73-4.33-1.52-4.69.12-.59,2.68,5.78,1.67,5.53,6.27-.08,1.55-1.08,3.03-2.92,3.45Z"/><path class="st2" d="M1066.78,304.71c1.55,1.45,3.72,1.28,5.52.08.39.7.71,1.38,1.06,2.22-2.75,1.74-6.38,1.62-8.69-.78-2.63-2.73-2.36-7.46.54-9.89,2.29-1.93,5.49-1.72,7.9-.27l-.99,2.34c-1.19-.72-2.16-1.18-3.56-.93-.88.16-1.97.91-2.51,1.99-.82,1.64-.72,3.9.72,5.24Z"/><polygon class="st2" points="1087.26 316.36 1082.6 324.96 1082.49 329.1 1080 329.11 1079.96 325.09 1075.28 316.31 1078.34 316.21 1081.35 322.2 1084.21 316.25 1087.26 316.36"/><path class="st2" d="M1130.23,305.58c.08.74.08,1.54,0,2.45l-8.49.02-.02-12.82c.81-.11,1.53-.11,2.51,0v10.36s6,0,6,0Z"/><path class="st2" d="M1119.7,305.58v2.45s-8.53.02-8.53.02l-.03-12.82c.87-.1,1.58-.11,2.51-.01l.02,10.37h6.04Z"/><path class="st2" d="M1101.03,307.92c-.91.12-1.62.12-2.57.04v-10.47s-2.98.08-2.98.08l.02-2.43,8.62-.02.09,2.44-3.2-.07.02,10.44Z"/><path class="st2" d="M1101.88,326.69c.53.43.46,1.6.22,2.44l-8.43.03-.02-12.86h2.52s-.02,10.44-.02,10.44l5.73-.05Z"/><rect class="st2" x="1105.95" y="295.12" width="2.51" height="12.92"/><path class="st2" d="M1122.44,314.84c-.62.62-1.35.99-2.1.4l1.2-1.97c.61-.25,1.54-.16,2.43.05l-1.53,1.53Z"/></g><path class="st4" d="M997.81,285.43c2.33,1.15,3.81,3.42,5.38,5.4,4.63,6.44,8.46,13.82,9.31,21.81.65-2.9,2.2-5.52,4.43-7.49,3.46-3.2,7.12-6.18,10.95-8.92,1.22-.79,1.77-2.16,2.42-3.4,1.26,2.48,1.43,5.27,1.69,7.97.44,6.35-.09,13.01-2.92,18.84,2.61-4.29,7.89-5.08,12.33-6.26,2.56-.8,5.68-.5,7.57-2.7.13,2.85-1.07,5.52-2.13,8.09-2.15,4.7-5.08,9.42-9.7,12.03-3.08,1.32-6.58.88-9.81.5.5-3.51-.18-7.19,1.19-10.56-2.48,4.27-7.56,5.95-12,7.34-1.05-3.6-3.31-6.77-3.97-10.51-1.18,4.88-4.51,8.86-7.84,12.48-3.67-3.47-8.57-5.59-11.49-9.86,2.04,5.48.97,11.5-.32,17.03-4.34-1.18-8.92-.77-13.27-1.98,4.51,3.36,7.31,8.46,9.58,13.48-4.46,1.96-8.14,5.45-12.78,7.12,5.74-.17,11.3,1.76,16.42,4.18-1.46,2.64-1.94,5.66-2.91,8.49-.84,2.85-2.09,5.57-3.71,8.07,1.13-1.17,2.24-2.45,3.76-3.13,4.25-2.09,9.05-2.64,13.72-2.88.32,5.11,2.31,10.09,1.64,15.26.54-2.25,1.02-4.62,2.39-6.53,2.45-2.97,5.8-5.08,9.23-6.76,1.98,3.79,5.21,6.9,6.34,11.11,1.21,3.9.05,8.14-2.27,11.4-3.04,4.04-6.32,7.89-9.83,11.52-.99.91-1.18,2.25-1.44,3.49-1.21-.87-1.58-2.41-2.12-3.72-2.22-6.05-2.88-12.53-2.69-18.93-.5,4.86-4.21,8.69-8.25,11.07-5.56,3.04-11.29,5.75-17.17,8.1-1.62.56-2.36,2.19-3.62,3.2-.62-3.21-.14-6.49.33-9.69,1.25-7.7,3.79-15.34,8.4-21.71-3.19,3.55-7.98,5.21-12.65,5.51-7.14.3-14.29-.13-21.41-.68-1.85-.28-3.44.76-5.04,1.49.15-1.88,1.15-3.51,2.07-5.1,3.39-5.51,7.57-10.49,12.39-14.8,3.79-3.33,8.03-6.26,12.82-7.93-2.87.4-5.8.08-8.53-.92-4.3-1.65-7.6-4.93-10.99-7.88-3.39-2.94-6.44-6.11-9.58-9.23-1.04-1.13-2.59-1.37-4-1.76l-.06-.5c2.78-1.89,6.16-2.56,9.35-3.4,8.49-1.82,17.53-2.48,25.94.05-3.97-2.4-6.55-6.6-7.62-11.04-1.41-6.27-2.44-12.61-3.08-19.01-.09-1.73-1.16-3.13-2.28-4.37,1.07-.5,2.21,0,3.27.25,4.72,1.53,9.22,3.67,13.38,6.36,5.09,3.26,9.87,7.24,13.15,12.39-1.85-4.24-1.42-9.07.13-13.33,1.62-4.88,3.49-9.68,5.61-14.38.74-1.49.48-3.14.25-4.71Z"/><g><path class="st2" d="M997.32,338.84h6.59c2.2,5.24,4.27,10.53,6.44,15.78,2.02-5.25,3.97-10.53,6.02-15.77h6.51c-4.21,9.63-8.36,19.28-12.63,28.88-.61-.05-.61-.87-.91-1.27-3.99-9.22-8.03-18.42-12.04-27.62Z"/><path class="st2" d="M1026.21,366.85v-28.01h19.2v5.32h-13.63v5.95h12.03v5.33h-12.02c0,2.02,0,4.04,0,6.07h14.13c0,1.77,0,3.55,0,5.32h-19.7Z"/><path class="st2" d="M1050,366.85v-28.01c5.06.35,10.56-1.02,15.22,1.49,5.92,3.28,5.55,13.01-.12,16.36,2.12,3.41,4.34,6.76,6.47,10.16h-6.42c-1.98-2.9-3.84-5.89-5.88-8.75-1.14-.41-2.48-.09-3.69-.17v8.92h-5.58M1055.57,344.17v8.43c1.83-.05,3.7.2,5.51-.2,3.36-1.03,3.63-6.49.46-7.9-1.92-.64-3.99-.22-5.97-.33Z"/><path class="st2" d="M1074.66,366.84v-28.01c5.55.3,11.5-.95,16.65,1.71,7.9,3.92,9.73,16.02,3.51,22.2-2.68,2.77-6.59,4.12-10.41,4.11h-9.78M1080.2,344.05v17.46c3.66.12,7.93.2,10.62-2.76,2.88-3.53,2.68-9.45-.67-12.62-2.68-2.43-6.54-2.13-9.92-2.08h-.03Z"/><path class="st2" d="M1102.55,366.85v-28.01h19.2v5.32h-13.63v5.95h12.02v5.33h-12.02v6.07h14.13v5.32c-6.57.02-13.14,0-19.7.01Z"/><path class="st2" d="M1125.94,343.79c1.33-3.61,5.45-5.35,9.08-5.1,3.03-.12,5.84,1.13,8.43,2.6-.68,1.43-1.39,2.86-2.11,4.27-2.54-1.27-5.45-2.63-8.35-1.69-1.96.47-2.48,3.37-.87,4.53,2.68,2.35,6.7,2.48,9.16,5.17,3.28,3.58,2.29,10.06-2.11,12.29-4.83,2.45-10.85,1.2-15.21-1.69.82-1.42,1.64-2.85,2.41-4.29,2.42,1.52,5.29,2.86,8.22,2.25,1.36-.26,2.93-1.26,2.81-2.83.16-1.58-1.34-2.6-2.55-3.27-2.63-1.28-5.63-2.07-7.67-4.28-1.98-2.11-2.14-5.35-1.24-7.96h0Z"/><path class="st2" d="M1054.71,392.53c-.96-7.44,4.93-14.84,12.34-15.74,6.79-1.04,13.73,3.65,15.63,10.18,1.37,4.26.39,9.01-2.19,12.61h4.34v5.45c-5.24.08-10.5-.2-15.73.26-7.15.37-13.84-5.63-14.38-12.75M1066.84,382.42c-3.71,1-6.32,4.31-6.44,8.15-.31,4.11,2.59,8.26,6.66,9.15,3.24.82,6.66-.38,8.69-3.04,2.7-3.47,2.43-8.96-.76-12.04-2.09-2.18-5.31-2.91-8.16-2.24h.02Z"/><path class="st2" d="M1125.34,377.05c7.33-1.98,15.37,3.13,17.2,10.41,1.84,6.38-1.62,13.59-7.57,16.41-5.13,2.57-11.8,1.71-15.98-2.28-4.27-3.9-5.76-10-3.77-15.43,1.68-4.5,5.46-7.9,10.12-9.1M1126.27,382.35c-3.58.99-6.11,4.51-6.18,8.18-.25,3.56,1.64,6.93,4.81,8.57,2.91,1.46,6.73,1.17,9.22-.99,3.79-3.15,4.22-9.42.99-13.11-2.15-2.58-5.63-3.62-8.85-2.66h0Z"/><path class="st2" d="M1032.52,377.01h19.21v5.33c-4.54,0-9.08,0-13.62,0v5.95h12.02v5.32h-12.03v6.06h14.12v5.33h-19.7c0-9.34,0-18.67,0-28h0Z"/><path class="st2" d="M1088.29,377.01h5.45v17.49c0,2.4,1.87,4.49,4.09,5.19,3.26,1.09,7.37-1.18,7.64-4.73.08-5.99,0-11.98.03-17.96h5.45v17.97c-.02,2.44-.93,4.78-2.57,6.59-4.57,5.19-13.88,4.96-18.08-.55-1.37-1.71-2.09-3.85-2.04-6.05.02-5.99,0-11.98,0-17.96h0Z"/></g></g></g></svg>